<?xml version="1.0" standalone="no"?>
<!DOCTYPE svg PUBLIC "-//W3C//DTD SVG 20010904//EN"
 "http://www.w3.org/TR/2001/REC-SVG-20010904/DTD/svg10.dtd">
<svg version="1.0" xmlns="http://www.w3.org/2000/svg"
 width="224.000000pt" height="224.000000pt" viewBox="0 0 224.000000 224.000000"
 preserveAspectRatio="xMidYMid meet">
<metadata>
Created by potrace 1.16, written by Peter Selinger 2001-2019
</metadata>
<g transform="translate(0.000000,224.000000) scale(0.100000,-0.100000)"
fill="#000000" stroke="none">
<path d="M1005 2234 c-161 -23 -274 -58 -405 -126 -296 -153 -509 -440 -581
-783 -17 -77 -17 -333 0 -410 97 -461 435 -799 896 -896 77 -17 333 -17 410 0
461 97 799 435 896 896 7 33 13 125 13 205 0 80 -6 172 -13 205 -96 455 -430
795 -876 891 -69 15 -282 26 -340 18z m236 -454 c119 -37 222 -140 259 -259
97 -309 -192 -598 -501 -501 -119 37 -222 140 -259 259 -97 309 192 598 501
501z m31 -915 c228 -48 431 -205 529 -409 l24 -48 -45 -40 c-115 -100 -260
-177 -418 -220 -111 -31 -373 -31 -484 0 -158 43 -303 120 -418 220 l-45 40
24 48 c97 202 300 360 525 409 81 18 225 18 308 0z"/>
</g>
</svg>
